<svg width="42" height="42" viewBox="0 0 42 42" fill="none" xmlns="http://www.w3.org/2000/svg">
<path d="M42 0H0V42H42V0Z" fill="#F7DF1E"/>
<path d="M28.2133 32.8127C29.0593 34.194 30.16 35.2093 32.1066 35.2093C33.742 35.2093 34.7866 34.392 34.7866 33.2627C34.7866 31.9093 33.7133 31.43 31.9133 30.6427L30.9266 30.2193C28.0786 29.006 26.1866 27.486 26.1866 24.2727C26.1866 21.3127 28.442 19.0593 31.9666 19.0593C34.476 19.0593 36.28 19.9327 37.58 22.2193L34.5066 24.1927C33.83 22.9793 33.1 22.5013 31.9666 22.5013C30.8106 22.5013 30.078 23.2347 30.078 24.1927C30.078 25.3767 30.8113 25.856 32.5046 26.5893L33.4913 27.012C36.8446 28.45 38.738 29.916 38.738 33.212C38.738 36.7653 35.9466 38.712 32.198 38.712C28.5326 38.712 26.1646 36.9653 25.006 34.676L28.2133 32.8127ZM14.2713 33.1547C14.8913 34.2547 15.4553 35.1847 16.8113 35.1847C18.108 35.1847 18.926 34.6773 18.926 32.7047V19.2847H22.8727V32.758C22.8727 36.8447 20.4767 38.7047 16.9793 38.7047C13.8193 38.7047 11.9893 37.0693 11.0587 35.0997L14.2713 33.1547Z" fill="black"/>
</svg>
