<svg width="62" height="44" viewBox="0 0 62 44" fill="none" xmlns="http://www.w3.org/2000/svg">
<path d="M14.9059 40.0842H12.5135C12.4289 35.8645 12.196 31.8975 11.815 28.1802H11.7938L8.15144 40.0842H6.33004L2.70944 28.1802H2.68864C2.42005 31.7492 2.25086 35.7172 2.18059 40.0842H0C0.140534 34.7737 0.493719 29.7951 1.05817 25.148H4.02325L7.4742 36.123H7.49546L10.9677 25.148H13.8047C14.426 30.5913 14.7931 35.5703 14.9059 40.0842ZM25.2809 29.0643C24.3069 34.5877 23.0217 38.6011 21.4268 41.1064C20.1842 43.0348 18.8228 44 17.3402 44C16.945 44 16.4573 43.8754 15.8794 43.628V42.2962C16.1619 42.3387 16.4933 42.3629 16.8743 42.3629C17.5668 42.3629 18.1234 42.1638 18.5477 41.7648C19.0553 41.2788 19.3091 40.7325 19.3091 40.1281C19.3091 39.7137 19.1113 38.8663 18.7165 37.5833L16.0912 29.0638H18.4414L20.3257 35.4355C20.7491 36.8824 20.9257 37.8925 20.855 38.4678C21.8854 35.5921 22.6052 32.4564 23.0152 29.0633H25.2809V29.0643Z" fill="#5D87A1"/>
<path d="M57.1252 40.0842H50.3297V25.1479H52.6157V38.2456H57.1252V40.0842ZM48.5508 40.445L45.9232 39.09C46.1562 38.89 46.379 38.6736 46.5796 38.4229C47.6965 37.0519 48.2536 35.0244 48.2536 32.339C48.2536 27.3976 46.398 24.9257 42.6854 24.9257C40.8649 24.9257 39.4448 25.5527 38.4291 26.8073C37.3132 28.1792 36.7561 30.1995 36.7561 32.8704C36.7561 35.4959 37.2498 37.4219 38.2377 38.6436C39.1415 39.7504 40.5038 40.3045 42.3257 40.3045C43.0053 40.3045 43.6289 40.2175 44.197 40.0421L47.6179 42.1232L48.5508 40.445ZM40.0388 37.0954C39.46 36.1225 39.1706 34.5602 39.1706 32.4062C39.1706 28.6454 40.2639 26.7629 42.4528 26.7629C43.597 26.7629 44.4356 27.2131 44.9718 28.1116C45.5497 29.086 45.8404 30.6342 45.8404 32.7583C45.8404 36.55 44.7462 38.4461 42.5587 38.4461C41.4141 38.4465 40.5755 37.9978 40.0388 37.0954ZM35.7599 35.9442C35.7599 37.2108 35.3152 38.2499 34.4267 39.0639C33.5372 39.8745 32.3445 40.2808 30.85 40.2808C29.452 40.2808 28.0966 39.8141 26.7847 38.8857L27.399 37.6031C28.5279 38.1939 29.55 38.4876 30.4677 38.4876C31.3289 38.4876 32.002 38.2881 32.4902 37.8925C32.9779 37.4954 33.2687 36.9384 33.2687 36.234C33.2687 35.3466 32.6765 34.5882 31.5901 33.953C30.5883 33.3781 28.5848 32.1762 28.5848 32.1762C27.4989 31.3492 26.9553 30.4613 26.9553 28.9985C26.9553 27.7879 27.3607 26.8107 28.172 26.0672C28.9842 25.3209 30.0322 24.9489 31.3169 24.9489C32.6436 24.9489 33.8497 25.3204 34.9361 26.0556L34.3851 27.3387C33.4559 26.9261 32.5387 26.7199 31.634 26.7199C30.9013 26.7199 30.3355 26.9039 29.9421 27.2735C29.5454 27.6416 29.3009 28.1126 29.3009 28.6903C29.3009 29.5734 29.9055 30.3415 31.0215 30.9893C32.0367 31.5651 34.0901 32.7878 34.0901 32.7878C35.2038 33.6134 35.7599 34.493 35.7599 35.9442Z" fill="#F8981D"/>
<path d="M59.9951 20.1452C58.6129 20.1085 57.5427 20.2539 56.6445 20.651C56.3851 20.7592 55.9728 20.7592 55.9367 21.1017C56.0768 21.2466 56.093 21.4804 56.2145 21.6804C56.4216 22.0413 56.7827 22.5268 57.1123 22.7799C57.4743 23.0698 57.8376 23.3567 58.2185 23.6094C58.8902 24.0436 59.6516 24.2963 60.3062 24.7291C60.6876 24.9808 61.0666 25.3064 61.4485 25.5774C61.6362 25.7218 61.7564 25.9561 62 26.0465V25.9914C61.878 25.8291 61.8433 25.5943 61.7236 25.4136L61.2049 24.891C60.7038 24.1876 60.0811 23.5736 59.4094 23.0693C58.8565 22.6712 57.6471 22.1302 57.4229 21.4645L57.3878 21.4278C57.7678 21.3906 58.2185 21.2466 58.5796 21.136C59.1671 20.9742 59.7029 21.0109 60.3057 20.8491C60.5831 20.7766 60.8582 20.6858 61.1365 20.5964V20.4336C60.824 20.1085 60.6011 19.6766 60.2724 19.3694C59.3932 18.5757 58.4242 17.7994 57.4229 17.1497C56.8867 16.7878 56.197 16.555 55.626 16.2473C55.4203 16.1386 55.0736 16.085 54.9525 15.9043C54.6428 15.5072 54.4685 14.9845 54.2438 14.5145C53.7446 13.5227 53.2596 12.4223 52.8288 11.3735C52.5172 10.6702 52.3277 9.96779 51.9477 9.31709C50.1679 6.24956 48.2351 4.39165 45.2644 2.56804C44.626 2.18834 43.8665 2.02651 43.0552 1.82749L41.7594 1.75599C41.483 1.62943 41.2061 1.28596 40.9647 1.12365C39.9792 0.474392 37.4417 -0.932806 36.7168 0.925102C36.2499 2.09946 37.4075 3.25401 37.805 3.84964C38.0986 4.26315 38.479 4.73367 38.6843 5.20322C38.8059 5.50997 38.8401 5.83556 38.9617 6.15971C39.2381 6.95388 39.4965 7.83743 39.8599 8.57846C40.0494 8.95623 40.2561 9.35332 40.4983 9.69533C40.637 9.89533 40.8783 9.98373 40.931 10.3098C40.6901 10.6692 40.6712 11.2117 40.533 11.6629C39.9117 13.702 40.1544 16.228 41.035 17.7265C41.3105 18.1777 41.9679 19.1709 42.8472 18.7902C43.6256 18.4656 43.4532 17.4371 43.677 16.5352C43.7283 16.3173 43.6945 16.1743 43.7981 16.0314V16.0666C44.0389 16.5714 44.2821 17.0579 44.5054 17.5641C45.0412 18.4477 45.974 19.3684 46.7511 19.9805C47.1649 20.3071 47.4926 20.8655 48.0109 21.065V21.0109H47.9767C47.8717 20.8491 47.7182 20.7766 47.5805 20.651C47.2689 20.3259 46.924 19.9288 46.6823 19.5684C45.9583 18.5574 45.3176 17.4381 44.749 16.283C44.4707 15.7227 44.2308 15.1101 44.0066 14.5507C43.9021 14.3348 43.9021 14.0092 43.7287 13.9005C43.4689 14.2971 43.0903 14.6406 42.9008 15.1266C42.5721 15.9038 42.5379 16.8598 42.4159 17.854L42.3479 17.8888C41.7978 17.7443 41.6064 17.1497 41.3974 16.6449C40.8801 15.3628 40.7932 13.3049 41.2421 11.8257C41.3623 11.4474 41.8824 10.2562 41.6748 9.89581C41.5708 9.55041 41.225 9.3538 41.0355 9.08183C40.8127 8.73981 40.5686 8.30698 40.4132 7.92728C39.999 6.91717 39.7905 5.79788 39.3444 4.78826C39.136 4.31774 38.774 3.8308 38.4809 3.39748C38.1518 2.91054 37.7898 2.56756 37.5295 1.99028C37.4435 1.79174 37.3229 1.46711 37.4611 1.25118C37.4949 1.10626 37.5651 1.05215 37.7029 1.01592C37.9266 0.818342 38.566 1.06954 38.7902 1.17823C39.4304 1.44876 39.9658 1.7014 40.5002 2.08013C40.7419 2.26129 41.0013 2.60427 41.3115 2.69461H41.6748C42.2263 2.82021 42.8481 2.72939 43.3672 2.89267C44.2821 3.1999 45.111 3.65061 45.8543 4.13707C48.1163 5.63605 49.9816 7.76593 51.2408 10.3098C51.4475 10.7243 51.5353 11.104 51.7239 11.5363C52.0877 12.4213 52.5375 13.3237 52.8986 14.1899C53.2615 15.0377 53.6073 15.9033 54.1255 16.6077C54.3839 16.9864 55.4222 17.1849 55.8877 17.3835C56.2321 17.5453 56.7683 17.6893 57.079 17.8878C57.6666 18.2661 58.2518 18.7003 58.8042 19.1163C59.0793 19.3327 59.9438 19.7839 59.9951 20.1452ZM42.3793 4.46266C42.1409 4.46007 41.9032 4.49061 41.6725 4.55348V4.58971H41.7058C41.8449 4.87811 42.0867 5.0781 42.2591 5.32978C42.3983 5.61915 42.5189 5.90609 42.6553 6.19497L42.6886 6.15922C42.9322 5.97904 43.0533 5.69016 43.0533 5.25684C42.9484 5.12931 42.9322 5.00467 42.8448 4.87811C42.7431 4.69744 42.5189 4.60759 42.3793 4.46266Z" fill="#5D87A1"/>
<path d="M61.6399 40.0809H61.9977V38.2518H61.461L61.0232 39.5L60.5475 38.2518H60.0307V40.0809H60.3686V38.6893H60.3875L60.8859 40.0809H61.1434L61.6399 38.6893V40.0809ZM58.7575 40.0809H59.1361V38.5618H59.6317V38.2513H58.2411V38.5618H58.7566L58.7575 40.0809Z" fill="#F8981D"/>
</svg>
