<svg width="52" height="32" viewBox="0 0 52 32" fill="none" xmlns="http://www.w3.org/2000/svg">
<g clip-path="url(#clip0)">
<path d="M12.2698 8.18201H22.0775V8.96154H13.1688V14.8285H21.5462V15.608H13.1688V22.0494H22.1796V22.8289H12.2698V8.18201ZM22.9561 8.18201H23.9982L28.6159 14.6234L33.3359 8.18201L39.7558 0L29.2085 15.3003L34.6436 22.8289H33.5606L28.6159 15.9773L23.6508 22.8289H22.5883L28.0643 15.3003L22.9561 8.18201ZM35.0318 8.96154V8.18201H46.2085V8.96154H41.0594V22.8289H40.1604V8.96154H35.0318ZM0 8.18201H1.1238L16.6203 31.371L10.2163 22.8289L0.939902 9.28976L0.899037 22.8289H0V8.18201ZM46.1179 21.8141C45.9342 21.8141 45.7964 21.6718 45.7964 21.4879C45.7964 21.304 45.9342 21.1617 46.1179 21.1617C46.3037 21.1617 46.4393 21.304 46.4393 21.4879C46.4393 21.6718 46.3037 21.8141 46.1179 21.8141ZM47.0013 20.9559H47.4824C47.4889 21.2164 47.6792 21.3916 47.959 21.3916C48.2717 21.3916 48.4489 21.2033 48.4489 20.8508V18.6175H48.9387V20.853C48.9387 21.4879 48.5713 21.8536 47.9634 21.8536C47.3927 21.8536 47.0013 21.4989 47.0013 20.9559ZM49.5794 20.9274H50.0648C50.1063 21.2274 50.3994 21.4178 50.8214 21.4178C51.215 21.4178 51.5036 21.2142 51.5036 20.934C51.5036 20.6931 51.32 20.5486 50.9023 20.4501L50.4956 20.3516C49.9249 20.218 49.6646 19.9421 49.6646 19.4779C49.6646 18.9152 50.1238 18.5408 50.8126 18.5408C51.4533 18.5408 51.9213 18.9152 51.9497 19.4473H51.473C51.4271 19.1561 51.1734 18.9743 50.8061 18.9743C50.419 18.9743 50.161 19.1605 50.161 19.4451C50.161 19.6706 50.3272 19.7998 50.7383 19.8961L51.086 19.9815C51.7332 20.1326 52 20.3953 52 20.8705C52 21.4748 51.5321 21.8536 50.7842 21.8536C50.0845 21.8536 49.6143 21.4923 49.5794 20.9274Z" fill="white"/>
</g>
<defs>
<clipPath id="clip0">
<rect width="52" height="31.3828" fill="white"/>
</clipPath>
</defs>
</svg>
