<svg width="47" height="42" viewBox="0 0 47 42" fill="none" xmlns="http://www.w3.org/2000/svg">
<g clip-path="url(#clip0)">
<path d="M26.4687 23.9417C28.1079 22.295 28.1079 19.6252 26.4687 17.9785C24.8295 16.3318 22.1717 16.3318 20.5325 17.9785C18.8933 19.6252 18.8933 22.295 20.5325 23.9417C22.1717 25.5884 24.8295 25.5884 26.4687 23.9417Z" fill="#00D8FF"/>
<path d="M44.5829 16.7583C43.1308 15.5413 41.077 14.4531 38.6436 13.6116C38.1561 13.4432 37.6524 13.2837 37.1325 13.1331C37.2178 12.7831 37.2953 12.4384 37.3652 12.099C37.9167 9.41072 38.0327 6.93523 37.7006 4.94006C37.3437 2.79608 36.4807 1.27218 35.2048 0.533089C33.9777 -0.177578 32.3075 -0.176045 30.3745 0.537688C28.5989 1.19331 26.635 2.43684 24.6937 4.1338C24.304 4.47437 23.914 4.83356 23.5238 5.21137C23.2633 4.9611 23.0034 4.72027 22.7442 4.48886C20.7011 2.66648 18.6244 1.32945 16.7379 0.62241C14.711 -0.138143 12.9657 -0.147479 11.6913 0.593705C10.4651 1.30632 9.63207 2.76026 9.28251 4.79988C8.96097 6.672 9.05294 9.00299 9.54704 11.5401C9.64664 12.051 9.76223 12.5721 9.89382 13.1033C9.29162 13.2749 8.7117 13.4583 8.15407 13.6534C5.76068 14.4913 3.74779 15.5764 2.33332 16.7922C0.806903 18.104 0 19.5452 0 20.9599C0 22.4158 0.84935 23.916 2.45608 25.2982C3.96807 26.5987 6.09041 27.7404 8.59435 28.6C9.00272 28.7404 9.42636 28.8737 9.86525 28.9999C9.72321 29.5751 9.60012 30.1382 9.49599 30.6892C9.02367 33.1912 8.955 35.485 9.29624 37.3221C9.66495 39.3057 10.5046 40.7279 11.7244 41.4346C12.3609 41.8035 13.116 41.9878 13.9663 41.9878C14.7928 41.9878 15.709 41.8134 16.6924 41.4646C18.5696 40.7987 20.6147 39.522 22.6066 37.7719C22.9323 37.4857 23.2596 37.1828 23.5886 36.8631C24.0125 37.273 24.4354 37.6603 24.8573 38.0252C26.779 39.6863 28.7228 40.892 30.4787 41.5125C31.3985 41.8376 32.2595 42.0002 33.0416 42.0002C33.8705 42.0002 34.6108 41.8178 35.2378 41.4532C36.4924 40.7242 37.3593 39.2345 37.7454 37.145C38.1085 35.1788 38.0289 32.7613 37.515 30.1538C37.4338 29.7419 37.3399 29.3209 37.2334 28.8907C37.5308 28.8021 37.8221 28.7106 38.1073 28.616C40.7004 27.7533 42.8929 26.6179 44.4465 25.3325C46.1171 23.9508 47.0001 22.4385 47.0001 20.9589C47 19.5366 46.1642 18.0838 44.5829 16.7583ZM31.0671 2.43085C31.812 2.15578 32.4874 2.01741 33.0579 2.01741C33.5114 2.01741 33.8987 2.10478 34.2018 2.28049C34.9299 2.70216 35.4691 3.76495 35.7201 5.27282C36.0114 7.02497 35.9005 9.2442 35.3985 11.6918C35.3355 11.9984 35.2654 12.3104 35.1883 12.6279C33.234 12.1751 31.1158 11.8391 28.9036 11.6306C28.4194 10.9379 27.9279 10.268 27.4292 9.62099C26.5988 8.54338 25.7662 7.55286 24.9312 6.64943C25.2918 6.30143 25.652 5.97011 26.0115 5.65547C27.7707 4.11764 29.5185 3.00259 31.0671 2.43085ZM30.0595 24.8049C29.3215 26.0904 28.5719 27.307 27.8108 28.4548C26.4142 28.5555 24.9713 28.6081 23.5009 28.6081C22.0305 28.6081 20.6104 28.5635 19.2493 28.4757C18.4468 27.3009 17.6743 26.0734 16.9486 24.8138C16.2221 23.5529 15.5516 22.2799 14.9436 21.012C15.5539 19.7348 16.2227 18.4574 16.9423 17.2044C17.6666 15.9427 18.4292 14.724 19.2188 13.5614C20.6248 13.4536 22.0608 13.3977 23.5008 13.3977C24.9535 13.3977 26.3887 13.4526 27.7879 13.5596C28.5654 14.7123 29.3244 15.9285 30.0532 17.1934C30.7946 18.4799 31.4705 19.7418 32.081 20.9791C31.4701 22.2441 30.7937 23.5257 30.0595 24.8049ZM33.1654 23.3058C33.7963 24.7486 34.3243 26.1383 34.7429 27.4594C33.3815 27.7713 31.9101 28.0231 30.3595 28.2104C30.8463 27.4354 31.3262 26.6361 31.7992 25.8125C32.2786 24.9767 32.7339 24.1412 33.1652 23.3061L33.1654 23.3058ZM23.5832 33.9739C22.6309 32.9401 21.6805 31.7966 20.7549 30.572C21.6529 30.6074 22.5682 30.6252 23.5006 30.6252C24.4611 30.6252 25.409 30.6042 26.3443 30.5621C25.4264 31.8158 24.5028 32.9574 23.5832 33.9739ZM16.6874 28.2515C15.1433 28.079 13.6943 27.8447 12.3564 27.5511C12.7726 26.2041 13.2858 24.8038 13.8803 23.3847C14.3009 24.2005 14.7445 25.0136 15.2112 25.8241C15.6872 26.6506 16.1792 27.4597 16.6874 28.2515ZM15.2031 16.1963C14.7385 17.0051 14.2959 17.8186 13.8754 18.6367C13.2928 17.2483 12.7919 15.8797 12.3828 14.5546C13.7247 14.254 15.1556 14.0078 16.6413 13.8209C16.1478 14.5943 15.6684 15.3861 15.2031 16.1963ZM23.5234 8.0918C24.4485 9.09886 25.376 10.2238 26.2888 11.4462C25.3688 11.4025 24.4394 11.3805 23.5006 11.3802C22.5715 11.3802 21.6492 11.4017 20.7337 11.4445C21.6445 10.2379 22.5796 9.11363 23.5231 8.0918H23.5234ZM31.7908 16.1824C31.3255 15.3747 30.8493 14.5871 30.362 13.8195C31.8582 14.0093 33.2954 14.2614 34.6483 14.572C34.2432 15.8756 33.738 17.24 33.1435 18.6394C32.7172 17.8268 32.2663 17.0078 31.7908 16.1824ZM11.5175 11.1528C11.0697 8.85361 10.9811 6.77526 11.2611 5.14225C11.5029 3.73249 12.0127 2.73713 12.6971 2.33944C13.4247 1.91624 14.6105 1.97714 16.0361 2.51209C17.6925 3.13302 19.551 4.33822 21.4109 5.99715C21.6452 6.20598 21.8804 6.42382 22.1165 6.65068C20.748 8.12664 19.3986 9.80409 18.1124 11.6273C17.1257 11.7195 16.1538 11.8369 15.1967 11.9797C14.026 12.1549 12.907 12.3639 11.8399 12.6068C11.7178 12.1135 11.6103 11.6288 11.5175 11.1528ZM9.24367 26.6915C6.97804 25.9137 5.08223 24.902 3.76208 23.7662C2.63086 22.7931 2.00789 21.7964 2.00789 20.9599C2.00789 20.1645 2.58703 19.2287 3.63876 18.325C4.86528 17.271 6.65525 16.3142 8.81504 15.558C9.33087 15.3776 9.87038 15.2074 10.4336 15.0474C11.0228 16.9726 11.7946 18.9816 12.7232 21.0084C12.3095 21.913 11.9253 22.8174 11.5703 23.7215C11.1225 24.8635 10.7336 25.9753 10.4036 27.0571C10.0038 26.9414 9.61718 26.8195 9.24367 26.6915ZM16.0238 39.5635C14.6193 40.0617 13.4487 40.106 12.7276 39.6882C12.0417 39.2907 11.524 38.3191 11.2699 36.9526C10.9737 35.3588 11.0424 33.323 11.4687 31.065C11.5649 30.5553 11.6797 30.0317 11.8129 29.4942C12.9605 29.7489 14.1879 29.9627 15.4871 30.1336C16.3471 30.2466 17.2328 30.3403 18.1442 30.4147C18.7109 31.2157 19.2919 31.9916 19.8871 32.7426C20.6485 33.7033 21.4134 34.5977 22.1819 35.4259C21.8819 35.7166 21.5829 35.9929 21.2849 36.2548C19.4828 37.8377 17.6635 38.9817 16.0238 39.5635ZM35.5454 30.546C36.0103 32.9054 36.0886 35.0608 35.7713 36.7775C35.4996 38.2485 34.9529 39.2891 34.2323 39.708C33.5468 40.1065 32.4502 40.072 31.1449 39.6105C29.6225 39.0724 27.9011 37.9957 26.167 36.497C25.7765 36.1594 25.3834 35.7988 24.9879 35.4153C25.7802 34.5448 26.5749 33.5865 27.3722 32.5403C27.895 31.8541 28.4138 31.1367 28.9284 30.3884C29.747 30.3152 30.5505 30.2253 31.3388 30.1184C32.7362 29.9288 34.0576 29.6893 35.2922 29.4025C35.3874 29.7916 35.4717 30.1728 35.5454 30.546ZM43.1702 23.7758C41.8051 24.9045 39.8359 25.9166 37.4753 26.7021C37.2184 26.7876 36.9553 26.8704 36.686 26.9504C36.3283 25.8128 35.894 24.6276 35.3831 23.3948C35.0532 22.5994 34.6945 21.7917 34.3071 20.9719C34.653 20.2229 34.9767 19.4787 35.2781 18.7391C35.7931 17.4768 36.233 16.2526 36.5947 15.0761C37.0739 15.2155 37.5389 15.3629 37.9895 15.5186C40.1951 16.2811 42.0293 17.2452 43.2959 18.3067C44.3894 19.2232 44.9916 20.1655 44.9916 20.9596C44.9921 21.8045 44.3451 22.8046 43.1702 23.7762V23.7758Z" fill="#00D8FF"/>
</g>
<defs>
<clipPath id="clip0">
<rect width="47" height="42" fill="white"/>
</clipPath>
</defs>
</svg>
