<svg width="47" height="25" viewBox="0 0 47 25" fill="none" xmlns="http://www.w3.org/2000/svg">
<path fill-rule="evenodd" clip-rule="evenodd" d="M47 22.1442C47 23.3853 46.052 24.378 44.8935 24.378H2.10627C0.947766 24.378 0 23.3853 0 22.1442V2.20615C0 0.992922 0.947766 0 2.10627 0H44.8935C46.052 0 47 0.992922 47 2.20615V22.1442Z" fill="white"/>
<path fill-rule="evenodd" clip-rule="evenodd" d="M12.744 11.2513C12.744 12.1893 12.0067 12.9616 11.1379 12.9616C10.2425 12.9616 9.50549 12.1893 9.50549 11.2513C9.50549 10.3137 10.2428 9.5693 11.1379 9.5693C12.0067 9.5693 12.744 10.3137 12.744 11.2513ZM13.9817 20.5174V1.43408H45.6046V20.5174H32.0973V17.6766C35.2829 16.9872 37.6266 14.0919 37.5999 10.4793C37.5999 6.48051 34.7304 3.14378 30.7016 3.14378C26.6468 3.14378 23.8027 6.48051 23.8027 10.4793C23.8027 13.954 25.936 16.6563 28.7528 17.5392V14.3951C27.2782 13.4299 26.6468 11.996 26.6468 10.4793C26.6468 8.10755 28.1741 6.06698 30.7016 6.06698C33.229 6.06698 34.7301 8.10783 34.7301 10.4793C34.7301 12.3272 33.4922 14.3125 32.097 14.5884V12.1893H29.6217V20.5174H13.9817ZM22.8288 3.39201H18.2999C16.7729 3.39201 14.9559 4.52259 14.9559 7.14255C14.9559 10.6999 20.3275 12.2166 20.3275 13.706C20.3275 14.3125 19.9325 14.7263 19.4322 14.7263H14.9822V17.5392H19.5111C22.4865 17.5392 23.3289 15.2504 23.3289 13.2646C23.3289 10.3137 17.9576 8.35551 17.9576 7.08699C17.9576 6.50788 18.2737 6.01141 18.9583 6.01141H22.829V3.39201H22.8288ZM38.2318 3.39201V13.2919C38.2318 16.4081 39.7064 17.5392 41.8656 17.5392H44.7092V14.5604H42.5505C41.5757 14.5604 41.0759 14.2022 41.0759 12.9058V3.39201H38.2318Z" fill="#AF4A46"/>
<path fill-rule="evenodd" clip-rule="evenodd" d="M5.68737 4.10907H1.13226V1.48911H12.8491V4.10907H8.39936V20.4895H5.68737V4.10907ZM14.3764 22.6407H14.4553C14.5342 22.9165 14.666 23.0824 14.903 23.0824C15.1399 23.0824 15.2715 22.9445 15.2715 22.7512C15.2715 22.558 15.0345 22.4474 14.9292 22.4201L14.8765 22.3921C14.6133 22.3098 14.4026 22.1718 14.4026 21.951C14.4026 21.6477 14.6657 21.5098 14.9818 21.5098C15.1399 21.5098 15.3242 21.5377 15.403 21.5927V21.9239H15.3242C15.2715 21.703 15.1661 21.5927 14.9556 21.5927C14.7452 21.5927 14.6395 21.703 14.6395 21.868C14.6395 22.006 14.7711 22.1168 14.9292 22.1718L15.0081 22.1992C15.2977 22.2821 15.5084 22.4201 15.5084 22.6959C15.5084 22.9163 15.3242 23.1645 14.9027 23.1645C14.7184 23.1645 14.5077 23.1095 14.4023 23.0265L14.3764 22.6407ZM19.3003 21.7309C19.4319 21.8683 19.511 22.0615 19.511 22.3374C19.511 22.5857 19.4321 22.8065 19.3003 22.9445C19.1684 23.0824 18.958 23.1648 18.6683 23.1648C18.4052 23.1648 18.1945 23.0824 18.0626 22.9445C17.9308 22.8065 17.8519 22.5857 17.8519 22.3374C17.8519 22.0615 17.9308 21.8683 18.0626 21.7309C18.1942 21.593 18.4049 21.5101 18.6683 21.5101C18.958 21.5101 19.1687 21.593 19.3003 21.7309ZM18.1418 22.3374C18.1418 22.6686 18.2471 23.0824 18.6683 23.0824C19.116 23.0824 19.2211 22.6686 19.2211 22.3374C19.2211 21.9792 19.1158 21.593 18.6683 21.593C18.2471 21.593 18.1418 21.9789 18.1418 22.3374ZM22.3284 22.8336C22.3284 22.9442 22.3284 22.9995 22.3811 23.0265H22.6445C22.9076 23.0265 23.0395 22.9992 23.0921 22.7233H23.171L23.1448 23.1095H21.8545V23.0545C22.0652 23.0265 22.0652 23.0265 22.0652 22.9165V21.7583C22.0652 21.6204 22.0652 21.6204 21.8545 21.593V21.538H22.5653V21.593C22.3284 21.6204 22.3284 21.6204 22.3284 21.7583V22.8336ZM27.1466 21.5377V21.5927C26.91 21.6201 26.91 21.6201 26.91 21.758V22.5304C26.91 22.6683 26.8832 22.8062 26.8573 22.8615C26.7257 23.1098 26.4623 23.1648 26.2253 23.1648C25.9884 23.1648 25.725 23.1098 25.6199 22.8615C25.5672 22.8065 25.5405 22.6686 25.5405 22.5304V21.758C25.5405 21.6201 25.5405 21.6201 25.33 21.5927V21.5377H26.0149V21.5927C25.8039 21.6201 25.7777 21.6201 25.7777 21.758V22.503C25.7777 22.6959 25.8303 22.8336 25.9092 22.9442C25.9881 23.0265 26.0935 23.0821 26.2253 23.0821C26.3837 23.0821 26.4885 23.0265 26.5674 22.9442C26.6201 22.8336 26.673 22.6959 26.673 22.503V21.758C26.673 21.6201 26.673 21.6201 26.4358 21.5927V21.5377H27.1466ZM30.2271 22.9165C30.2271 23.0268 30.2539 23.0268 30.517 23.0545V23.1095H29.7273V23.0545C29.9905 23.0265 29.9905 23.0265 29.9905 22.9165V21.6201H29.8589C29.5428 21.6201 29.4901 21.6757 29.4639 21.9239H29.4112V21.5377H30.8329V21.9239H30.754C30.7272 21.6757 30.6745 21.6201 30.3852 21.6201H30.2269V22.9165H30.2271ZM33.5716 22.9165C33.5716 23.0268 33.5716 23.0268 33.8083 23.0545V23.1095H33.0974V23.0545C33.3347 23.0265 33.3347 23.0265 33.3347 22.9165V21.7583C33.3347 21.6204 33.3347 21.6204 33.0974 21.593V21.538H33.8083V21.593C33.5716 21.6204 33.5716 21.6204 33.5716 21.7583V22.9165ZM37.5737 21.7309C37.732 21.8683 37.7841 22.0615 37.7841 22.3374C37.7841 22.5857 37.732 22.8065 37.5737 22.9445C37.4421 23.0824 37.2316 23.1648 36.9682 23.1648C36.7045 23.1648 36.494 23.0824 36.3622 22.9445C36.2304 22.8065 36.1517 22.5857 36.1517 22.3374C36.1517 22.0615 36.2306 21.8683 36.3622 21.7309C36.4938 21.593 36.7043 21.5101 36.9682 21.5101C37.2316 21.5101 37.4421 21.593 37.5737 21.7309ZM36.4152 22.3374C36.4152 22.6686 36.5208 23.0824 36.9682 23.0824C37.4156 23.0824 37.5207 22.6686 37.5207 22.3374C37.5207 21.9792 37.4156 21.593 36.9682 21.593C36.5208 21.593 36.4152 21.9789 36.4152 22.3374ZM40.6015 21.5377C40.9176 21.951 41.2602 22.3651 41.5757 22.8062V22.0063V21.703C41.5495 21.6201 41.4968 21.6201 41.3391 21.5927V21.5377H41.9183V21.5927C41.7867 21.6201 41.734 21.6201 41.7078 21.703V23.1095H41.5236C41.181 22.6683 40.8387 22.1992 40.4702 21.7307V22.668C40.4702 22.7783 40.4702 22.861 40.4969 22.9439C40.4969 23.0263 40.5758 23.0542 40.7336 23.0542V23.1092H40.1281V23.0542C40.2597 23.0542 40.3124 23.0263 40.3386 22.9439C40.3653 22.861 40.3653 22.778 40.3653 22.668V21.7577C40.3653 21.6198 40.3653 21.6198 40.1281 21.5924V21.5374H40.6015V21.5377ZM44.2353 22.6407H44.3142C44.3931 22.9165 44.5514 23.0824 44.7619 23.0824C44.9991 23.0824 45.1306 22.9445 45.1306 22.7512C45.1306 22.558 44.8934 22.4474 44.7886 22.4201L44.7359 22.3921C44.4728 22.3098 44.2618 22.1718 44.2618 21.951C44.2618 21.6477 44.5517 21.5098 44.841 21.5098C44.9993 21.5098 45.1836 21.5377 45.2625 21.5927V21.9239H45.1836C45.1569 21.703 45.0253 21.5927 44.8148 21.5927C44.6044 21.5927 44.4987 21.703 44.4987 21.868C44.4987 22.006 44.6303 22.1168 44.8148 22.1718L44.8937 22.1992C45.1836 22.2821 45.3679 22.4201 45.3679 22.6959C45.3679 22.9163 45.2095 23.1645 44.7619 23.1645C44.5776 23.1645 44.3669 23.1095 44.2615 23.0265L44.2353 22.6407Z" fill="#AF4A46"/>
</svg>
