<svg width="42" height="42" viewBox="0 0 42 42" fill="none" xmlns="http://www.w3.org/2000/svg">
<path d="M38.7715 32.3702L21.7484 42V34.5017L32.3534 28.6663L38.7715 32.3702ZM39.937 31.3162V11.1825L33.7105 14.7814V27.7253L39.937 31.3162ZM3.23166 32.3702L20.2522 42V34.5017L9.6406 28.665L3.23166 32.3702ZM2.06616 31.3162V11.1825L8.29266 14.7814V27.7253L2.06616 31.3162ZM2.79591 9.87525L20.2522 0V7.24762L8.97779 13.4531L2.79591 9.87525ZM39.2047 9.87525L21.7484 0V7.24762L33.0228 13.4466L39.2047 9.87525Z" fill="#8ED6FB"/>
<path d="M20.2519 33.1236L9.78601 27.3657V15.9679L20.2519 22.0107V33.1236ZM21.7481 33.1236L32.2153 27.3709V15.9653L21.7481 22.0107V33.1236ZM10.4948 14.6502L21 8.87651L31.5053 14.6515L21 20.7153L10.4948 14.6502Z" fill="#1C78C0"/>
</svg>
